<mxfile host="65bd71144e">
    <diagram id="jLjibpEC9vCaQyCdUxT3" name="Page-1">
        <mxGraphModel dx="2164" dy="1873" grid="1" gridSize="10" guides="1" tooltips="1" connect="1" arrows="1" fold="1" page="1" pageScale="1" pageWidth="850" pageHeight="1100" math="0" shadow="0">
            <root>
                <mxCell id="0"/>
                <mxCell id="1" parent="0"/>
                <mxCell id="2" value="N1" style="ellipse;whiteSpace=wrap;html=1;aspect=fixed;" vertex="1" parent="1">
                    <mxGeometry x="160" y="-20.400000000000006" width="80" height="80" as="geometry"/>
                </mxCell>
                <mxCell id="3" value="N2" style="ellipse;whiteSpace=wrap;html=1;aspect=fixed;" vertex="1" parent="1">
                    <mxGeometry x="374" y="-20.400000000000006" width="80" height="80" as="geometry"/>
                </mxCell>
                <mxCell id="6" value="" style="endArrow=none;html=1;rounded=0;exitX=1;exitY=0.5;exitDx=0;exitDy=0;entryX=0;entryY=0.5;entryDx=0;entryDy=0;" edge="1" parent="1" source="2" target="3">
                    <mxGeometry width="50" height="50" relative="1" as="geometry">
                        <mxPoint x="130" y="199.60469066961917" as="sourcePoint"/>
                        <mxPoint x="192" y="301.6046906696192" as="targetPoint"/>
                    </mxGeometry>
                </mxCell>
                <mxCell id="16" value="Ligne avec phase" style="text;html=1;strokeColor=none;fillColor=none;align=center;verticalAlign=middle;whiteSpace=wrap;rounded=0;" vertex="1" parent="1">
                    <mxGeometry x="250" y="-10" width="110" height="30" as="geometry"/>
                </mxCell>
                <mxCell id="18" value="Prod1" style="rounded=1;whiteSpace=wrap;html=1;" vertex="1" parent="1">
                    <mxGeometry x="40" y="4.600000000000001" width="70" height="30" as="geometry"/>
                </mxCell>
                <mxCell id="19" value="N3" style="ellipse;whiteSpace=wrap;html=1;aspect=fixed;" vertex="1" parent="1">
                    <mxGeometry x="265" y="190" width="80" height="80" as="geometry"/>
                </mxCell>
                <mxCell id="21" value="" style="endArrow=none;html=1;exitX=0.5;exitY=1;exitDx=0;exitDy=0;entryX=0;entryY=0;entryDx=0;entryDy=0;startArrow=none;" edge="1" parent="1" source="23" target="19">
                    <mxGeometry width="50" height="50" relative="1" as="geometry">
                        <mxPoint x="520" y="250" as="sourcePoint"/>
                        <mxPoint x="570" y="200" as="targetPoint"/>
                    </mxGeometry>
                </mxCell>
                <mxCell id="22" value="" style="endArrow=none;html=1;exitX=0;exitY=1;exitDx=0;exitDy=0;entryX=1;entryY=0;entryDx=0;entryDy=0;" edge="1" parent="1" source="3" target="19">
                    <mxGeometry width="50" height="50" relative="1" as="geometry">
                        <mxPoint x="238.2842712474619" y="57.88427124746181" as="sourcePoint"/>
                        <mxPoint x="286.71572875253787" y="161.71572875253787" as="targetPoint"/>
                    </mxGeometry>
                </mxCell>
                <mxCell id="25" value="" style="endArrow=none;html=1;exitX=0.5;exitY=1;exitDx=0;exitDy=0;entryX=0.25;entryY=0;entryDx=0;entryDy=0;" edge="1" parent="1" source="2" target="23">
                    <mxGeometry width="50" height="50" relative="1" as="geometry">
                        <mxPoint x="228.2842712474619" y="47.88427124746181" as="sourcePoint"/>
                        <mxPoint x="276.71572875253787" y="201.71572875253787" as="targetPoint"/>
                    </mxGeometry>
                </mxCell>
                <mxCell id="23" value="TD13" style="rounded=1;whiteSpace=wrap;html=1;" vertex="1" parent="1">
                    <mxGeometry x="210" y="110" width="40" height="30" as="geometry"/>
                </mxCell>
                <mxCell id="27" value="Demande2" style="rounded=1;whiteSpace=wrap;html=1;" vertex="1" parent="1">
                    <mxGeometry x="500" y="4.599999999999994" width="70" height="30" as="geometry"/>
                </mxCell>
                <mxCell id="28" value="" style="endArrow=classic;html=1;exitX=1;exitY=0.5;exitDx=0;exitDy=0;entryX=0;entryY=0.5;entryDx=0;entryDy=0;" edge="1" parent="1" source="3" target="27">
                    <mxGeometry width="50" height="50" relative="1" as="geometry">
                        <mxPoint x="520" y="250" as="sourcePoint"/>
                        <mxPoint x="570" y="200" as="targetPoint"/>
                    </mxGeometry>
                </mxCell>
                <mxCell id="29" value="" style="endArrow=classic;html=1;exitX=1;exitY=0.5;exitDx=0;exitDy=0;entryX=0;entryY=0.5;entryDx=0;entryDy=0;" edge="1" parent="1" source="18" target="2">
                    <mxGeometry width="50" height="50" relative="1" as="geometry">
                        <mxPoint x="520" y="250" as="sourcePoint"/>
                        <mxPoint x="570" y="200" as="targetPoint"/>
                    </mxGeometry>
                </mxCell>
                <mxCell id="79" value="" style="group" vertex="1" connectable="0" parent="1">
                    <mxGeometry x="610" y="-160" width="851" height="710" as="geometry"/>
                </mxCell>
                <mxCell id="30" value="Thermal" style="swimlane;fontStyle=0;childLayout=stackLayout;horizontal=1;startSize=30;horizontalStack=0;resizeParent=1;resizeParentMax=0;resizeLast=0;collapsible=1;marginBottom=0;whiteSpace=wrap;html=1;" vertex="1" parent="79">
                    <mxGeometry x="160" y="120" width="220" height="120" as="geometry"/>
                </mxCell>
                <mxCell id="31" value="P : Variable" style="text;strokeColor=none;fillColor=none;align=left;verticalAlign=middle;spacingLeft=4;spacingRight=4;overflow=hidden;points=[[0,0.5],[1,0.5]];portConstraint=eastwest;rotatable=0;whiteSpace=wrap;html=1;" vertex="1" parent="30">
                    <mxGeometry y="30" width="220" height="30" as="geometry"/>
                </mxCell>
                <mxCell id="33" value="Flow FlowT" style="text;strokeColor=none;fillColor=none;align=left;verticalAlign=middle;spacingLeft=4;spacingRight=4;overflow=hidden;points=[[0,0.5],[1,0.5]];portConstraint=eastwest;rotatable=0;whiteSpace=wrap;html=1;" vertex="1" parent="30">
                    <mxGeometry y="60" width="220" height="30" as="geometry"/>
                </mxCell>
                <mxCell id="81" value="" style="endArrow=none;dashed=1;html=1;rounded=0;exitX=0;exitY=0.5;exitDx=0;exitDy=0;entryX=1;entryY=0.5;entryDx=0;entryDy=0;" edge="1" parent="30">
                    <mxGeometry width="50" height="50" relative="1" as="geometry">
                        <mxPoint y="90" as="sourcePoint"/>
                        <mxPoint x="220" y="90" as="targetPoint"/>
                    </mxGeometry>
                </mxCell>
                <mxCell id="35" value="FlowT.F = P" style="text;strokeColor=none;fillColor=none;align=left;verticalAlign=middle;spacingLeft=4;spacingRight=4;overflow=hidden;points=[[0,0.5],[1,0.5]];portConstraint=eastwest;rotatable=0;whiteSpace=wrap;html=1;" vertex="1" parent="30">
                    <mxGeometry y="90" width="220" height="30" as="geometry"/>
                </mxCell>
                <mxCell id="82" value="" style="endArrow=none;dashed=1;html=1;rounded=0;exitX=0;exitY=0.5;exitDx=0;exitDy=0;entryX=1;entryY=0.5;entryDx=0;entryDy=0;" edge="1" parent="30">
                    <mxGeometry width="50" height="50" relative="1" as="geometry">
                        <mxPoint y="60" as="sourcePoint"/>
                        <mxPoint x="220" y="60" as="targetPoint"/>
                    </mxGeometry>
                </mxCell>
                <mxCell id="37" value="FlowEffort : PortType" style="swimlane;fontStyle=0;childLayout=stackLayout;horizontal=1;startSize=30;horizontalStack=0;resizeParent=1;resizeParentMax=0;resizeLast=0;collapsible=1;marginBottom=0;whiteSpace=wrap;html=1;" vertex="1" parent="79">
                    <mxGeometry y="120" width="140" height="90" as="geometry"/>
                </mxCell>
                <mxCell id="38" value="F : PortField" style="text;strokeColor=none;fillColor=none;align=left;verticalAlign=middle;spacingLeft=4;spacingRight=4;overflow=hidden;points=[[0,0.5],[1,0.5]];portConstraint=eastwest;rotatable=0;whiteSpace=wrap;html=1;" vertex="1" parent="37">
                    <mxGeometry y="30" width="140" height="30" as="geometry"/>
                </mxCell>
                <mxCell id="85" value="theta : PortField" style="text;strokeColor=none;fillColor=none;align=left;verticalAlign=middle;spacingLeft=4;spacingRight=4;overflow=hidden;points=[[0,0.5],[1,0.5]];portConstraint=eastwest;rotatable=0;whiteSpace=wrap;html=1;" vertex="1" parent="37">
                    <mxGeometry y="60" width="140" height="30" as="geometry"/>
                </mxCell>
                <mxCell id="39" value="Lien avec réservation de capacité pour les réserves" style="swimlane;fontStyle=0;childLayout=stackLayout;horizontal=1;startSize=30;horizontalStack=0;resizeParent=1;resizeParentMax=0;resizeLast=0;collapsible=1;marginBottom=0;whiteSpace=wrap;html=1;" vertex="1" parent="79">
                    <mxGeometry x="641" y="120" width="210" height="240" as="geometry"/>
                </mxCell>
                <mxCell id="40" value="F, theta1, theta2 : Variable" style="text;strokeColor=none;fillColor=none;align=left;verticalAlign=middle;spacingLeft=4;spacingRight=4;overflow=hidden;points=[[0,0.5],[1,0.5]];portConstraint=eastwest;rotatable=0;whiteSpace=wrap;html=1;" vertex="1" parent="39">
                    <mxGeometry y="30" width="210" height="30" as="geometry"/>
                </mxCell>
                <mxCell id="43" value="F_max : Parameter" style="text;strokeColor=none;fillColor=none;align=left;verticalAlign=middle;spacingLeft=4;spacingRight=4;overflow=hidden;points=[[0,0.5],[1,0.5]];portConstraint=eastwest;rotatable=0;whiteSpace=wrap;html=1;" vertex="1" parent="39">
                    <mxGeometry y="60" width="210" height="30" as="geometry"/>
                </mxCell>
                <mxCell id="47" value="FlowEffort FE1, FE2" style="text;strokeColor=none;fillColor=none;align=left;verticalAlign=middle;spacingLeft=4;spacingRight=4;overflow=hidden;points=[[0,0.5],[1,0.5]];portConstraint=eastwest;rotatable=0;whiteSpace=wrap;html=1;" vertex="1" parent="39">
                    <mxGeometry y="90" width="210" height="30" as="geometry"/>
                </mxCell>
                <mxCell id="52" value="FE1.F = -F" style="text;strokeColor=none;fillColor=none;align=left;verticalAlign=middle;spacingLeft=4;spacingRight=4;overflow=hidden;points=[[0,0.5],[1,0.5]];portConstraint=eastwest;rotatable=0;whiteSpace=wrap;html=1;" vertex="1" parent="39">
                    <mxGeometry y="120" width="210" height="30" as="geometry"/>
                </mxCell>
                <mxCell id="53" value="FE2.F = F" style="text;strokeColor=none;fillColor=none;align=left;verticalAlign=middle;spacingLeft=4;spacingRight=4;overflow=hidden;points=[[0,0.5],[1,0.5]];portConstraint=eastwest;rotatable=0;whiteSpace=wrap;html=1;" vertex="1" parent="39">
                    <mxGeometry y="150" width="210" height="30" as="geometry"/>
                </mxCell>
                <mxCell id="126" value="FE1.theta = theta1" style="text;strokeColor=none;fillColor=none;align=left;verticalAlign=middle;spacingLeft=4;spacingRight=4;overflow=hidden;points=[[0,0.5],[1,0.5]];portConstraint=eastwest;rotatable=0;whiteSpace=wrap;html=1;" vertex="1" parent="39">
                    <mxGeometry y="180" width="210" height="30" as="geometry"/>
                </mxCell>
                <mxCell id="127" value="FE2.theta = theta2" style="text;strokeColor=none;fillColor=none;align=left;verticalAlign=middle;spacingLeft=4;spacingRight=4;overflow=hidden;points=[[0,0.5],[1,0.5]];portConstraint=eastwest;rotatable=0;whiteSpace=wrap;html=1;" vertex="1" parent="39">
                    <mxGeometry y="210" width="210" height="30" as="geometry"/>
                </mxCell>
                <mxCell id="56" value="Noeud" style="swimlane;fontStyle=0;childLayout=stackLayout;horizontal=1;startSize=30;horizontalStack=0;resizeParent=1;resizeParentMax=0;resizeLast=0;collapsible=1;marginBottom=0;whiteSpace=wrap;html=1;" vertex="1" parent="79">
                    <mxGeometry x="160" y="320" width="220" height="150" as="geometry"/>
                </mxCell>
                <mxCell id="57" value="Spill, Lol, thetaN : Variable" style="text;strokeColor=none;fillColor=none;align=left;verticalAlign=middle;spacingLeft=4;spacingRight=4;overflow=hidden;points=[[0,0.5],[1,0.5]];portConstraint=eastwest;rotatable=0;whiteSpace=wrap;html=1;" vertex="1" parent="56">
                    <mxGeometry y="30" width="220" height="30" as="geometry"/>
                </mxCell>
                <mxCell id="58" value="" style="endArrow=none;dashed=1;html=1;rounded=0;exitX=0;exitY=0.5;exitDx=0;exitDy=0;entryX=1;entryY=0.5;entryDx=0;entryDy=0;" edge="1" parent="56">
                    <mxGeometry width="50" height="50" relative="1" as="geometry">
                        <mxPoint y="60" as="sourcePoint"/>
                        <mxPoint x="220" y="60" as="targetPoint"/>
                    </mxGeometry>
                </mxCell>
                <mxCell id="59" value="FlowEffort FEN " style="text;strokeColor=none;fillColor=none;align=left;verticalAlign=middle;spacingLeft=4;spacingRight=4;overflow=hidden;points=[[0,0.5],[1,0.5]];portConstraint=eastwest;rotatable=0;whiteSpace=wrap;html=1;" vertex="1" parent="56">
                    <mxGeometry y="60" width="220" height="30" as="geometry"/>
                </mxCell>
                <mxCell id="60" value="" style="endArrow=none;dashed=1;html=1;rounded=0;exitX=0;exitY=0.5;exitDx=0;exitDy=0;entryX=1;entryY=0.5;entryDx=0;entryDy=0;" edge="1" parent="56">
                    <mxGeometry width="50" height="50" relative="1" as="geometry">
                        <mxPoint y="88" as="sourcePoint"/>
                        <mxPoint x="220" y="88" as="targetPoint"/>
                    </mxGeometry>
                </mxCell>
                <mxCell id="61" value="FEN.F.sum() = Spill - Lol" style="text;strokeColor=none;fillColor=none;align=left;verticalAlign=middle;spacingLeft=4;spacingRight=4;overflow=hidden;points=[[0,0.5],[1,0.5]];portConstraint=eastwest;rotatable=0;whiteSpace=wrap;html=1;" vertex="1" parent="56">
                    <mxGeometry y="90" width="220" height="30" as="geometry"/>
                </mxCell>
                <mxCell id="134" value="FEN.theta = thetaN" style="text;strokeColor=none;fillColor=none;align=left;verticalAlign=middle;spacingLeft=4;spacingRight=4;overflow=hidden;points=[[0,0.5],[1,0.5]];portConstraint=eastwest;rotatable=0;whiteSpace=wrap;html=1;" vertex="1" parent="56">
                    <mxGeometry y="120" width="220" height="30" as="geometry"/>
                </mxCell>
                <mxCell id="62" value="TD" style="swimlane;fontStyle=0;childLayout=stackLayout;horizontal=1;startSize=30;horizontalStack=0;resizeParent=1;resizeParentMax=0;resizeLast=0;collapsible=1;marginBottom=0;whiteSpace=wrap;html=1;" vertex="1" parent="79">
                    <mxGeometry x="401" y="260" width="220" height="210" as="geometry"/>
                </mxCell>
                <mxCell id="64" value="epsilon : Variable" style="text;strokeColor=none;fillColor=none;align=left;verticalAlign=middle;spacingLeft=4;spacingRight=4;overflow=hidden;points=[[0,0.5],[1,0.5]];portConstraint=eastwest;rotatable=0;whiteSpace=wrap;html=1;" vertex="1" parent="62">
                    <mxGeometry y="30" width="220" height="30" as="geometry"/>
                </mxCell>
                <mxCell id="84" value="epsilon_max : Variable" style="text;strokeColor=none;fillColor=none;align=left;verticalAlign=middle;spacingLeft=4;spacingRight=4;overflow=hidden;points=[[0,0.5],[1,0.5]];portConstraint=eastwest;rotatable=0;whiteSpace=wrap;html=1;" vertex="1" parent="62">
                    <mxGeometry y="60" width="220" height="30" as="geometry"/>
                </mxCell>
                <mxCell id="65" value="0 &amp;lt;= epsilon &amp;lt;= epsilon_max" style="text;strokeColor=none;fillColor=none;align=left;verticalAlign=middle;spacingLeft=4;spacingRight=4;overflow=hidden;points=[[0,0.5],[1,0.5]];portConstraint=eastwest;rotatable=0;whiteSpace=wrap;html=1;" vertex="1" parent="62">
                    <mxGeometry y="90" width="220" height="30" as="geometry"/>
                </mxCell>
                <mxCell id="66" value="" style="endArrow=none;dashed=1;html=1;rounded=0;exitX=0;exitY=0.5;exitDx=0;exitDy=0;entryX=1;entryY=0.5;entryDx=0;entryDy=0;" edge="1" parent="62">
                    <mxGeometry width="50" height="50" relative="1" as="geometry">
                        <mxPoint y="119" as="sourcePoint"/>
                        <mxPoint x="200" y="119" as="targetPoint"/>
                    </mxGeometry>
                </mxCell>
                <mxCell id="67" value="FlowEffort F1, F2" style="text;strokeColor=none;fillColor=none;align=left;verticalAlign=middle;spacingLeft=4;spacingRight=4;overflow=hidden;points=[[0,0.5],[1,0.5]];portConstraint=eastwest;rotatable=0;whiteSpace=wrap;html=1;" vertex="1" parent="62">
                    <mxGeometry y="120" width="220" height="30" as="geometry"/>
                </mxCell>
                <mxCell id="69" value="" style="endArrow=none;dashed=1;html=1;rounded=0;exitX=0;exitY=0.5;exitDx=0;exitDy=0;entryX=1;entryY=0.5;entryDx=0;entryDy=0;" edge="1" parent="62">
                    <mxGeometry width="50" height="50" relative="1" as="geometry">
                        <mxPoint y="179" as="sourcePoint"/>
                        <mxPoint x="200" y="179" as="targetPoint"/>
                    </mxGeometry>
                </mxCell>
                <mxCell id="71" value="F1.F = F2.F" style="text;strokeColor=none;fillColor=none;align=left;verticalAlign=middle;spacingLeft=4;spacingRight=4;overflow=hidden;points=[[0,0.5],[1,0.5]];portConstraint=eastwest;rotatable=0;whiteSpace=wrap;html=1;" vertex="1" parent="62">
                    <mxGeometry y="150" width="220" height="30" as="geometry"/>
                </mxCell>
                <mxCell id="143" value="F2.theta = F1.theta + epsilon" style="text;strokeColor=none;fillColor=none;align=left;verticalAlign=middle;spacingLeft=4;spacingRight=4;overflow=hidden;points=[[0,0.5],[1,0.5]];portConstraint=eastwest;rotatable=0;whiteSpace=wrap;html=1;" vertex="1" parent="62">
                    <mxGeometry y="180" width="220" height="30" as="geometry"/>
                </mxCell>
                <mxCell id="72" value="Demande" style="swimlane;fontStyle=0;childLayout=stackLayout;horizontal=1;startSize=30;horizontalStack=0;resizeParent=1;resizeParentMax=0;resizeLast=0;collapsible=1;marginBottom=0;whiteSpace=wrap;html=1;" vertex="1" parent="79">
                    <mxGeometry x="401" y="120" width="220" height="120" as="geometry"/>
                </mxCell>
                <mxCell id="73" value="d : Parameter" style="text;strokeColor=none;fillColor=none;align=left;verticalAlign=middle;spacingLeft=4;spacingRight=4;overflow=hidden;points=[[0,0.5],[1,0.5]];portConstraint=eastwest;rotatable=0;whiteSpace=wrap;html=1;" vertex="1" parent="72">
                    <mxGeometry y="30" width="220" height="30" as="geometry"/>
                </mxCell>
                <mxCell id="74" value="" style="endArrow=none;dashed=1;html=1;rounded=0;exitX=0;exitY=0.5;exitDx=0;exitDy=0;entryX=1;entryY=0.5;entryDx=0;entryDy=0;" edge="1" parent="72">
                    <mxGeometry width="50" height="50" relative="1" as="geometry">
                        <mxPoint y="58" as="sourcePoint"/>
                        <mxPoint x="220" y="58" as="targetPoint"/>
                    </mxGeometry>
                </mxCell>
                <mxCell id="75" value="Flow FlowD " style="text;strokeColor=none;fillColor=none;align=left;verticalAlign=middle;spacingLeft=4;spacingRight=4;overflow=hidden;points=[[0,0.5],[1,0.5]];portConstraint=eastwest;rotatable=0;whiteSpace=wrap;html=1;" vertex="1" parent="72">
                    <mxGeometry y="60" width="220" height="30" as="geometry"/>
                </mxCell>
                <mxCell id="76" value="FlowN.F = -d" style="text;strokeColor=none;fillColor=none;align=left;verticalAlign=middle;spacingLeft=4;spacingRight=4;overflow=hidden;points=[[0,0.5],[1,0.5]];portConstraint=eastwest;rotatable=0;whiteSpace=wrap;html=1;" vertex="1" parent="72">
                    <mxGeometry y="90" width="220" height="30" as="geometry"/>
                </mxCell>
                <mxCell id="77" value="" style="endArrow=none;dashed=1;html=1;rounded=0;exitX=0;exitY=0.5;exitDx=0;exitDy=0;entryX=1;entryY=0.5;entryDx=0;entryDy=0;" edge="1" parent="72">
                    <mxGeometry width="50" height="50" relative="1" as="geometry">
                        <mxPoint y="89" as="sourcePoint"/>
                        <mxPoint x="220" y="89" as="targetPoint"/>
                    </mxGeometry>
                </mxCell>
                <mxCell id="78" value="&lt;font style=&quot;font-size: 32px;&quot;&gt;&lt;b&gt;Ports et modèles&lt;br&gt;&lt;/b&gt;&lt;/font&gt;" style="text;html=1;strokeColor=none;fillColor=none;align=center;verticalAlign=middle;whiteSpace=wrap;rounded=0;" vertex="1" parent="79">
                    <mxGeometry x="235.5" width="380" height="120" as="geometry"/>
                </mxCell>
                <mxCell id="95" value="Est-ce que les ports n'ayant que le flow sont des instances particulières de FlowEffort ?" style="text;html=1;strokeColor=none;fillColor=none;align=center;verticalAlign=middle;whiteSpace=wrap;rounded=0;" vertex="1" parent="79">
                    <mxGeometry x="20" y="250" width="160" height="110" as="geometry"/>
                </mxCell>
                <mxCell id="135" value="Fichier &quot;network.txt" style="swimlane;fontStyle=0;childLayout=stackLayout;horizontal=1;startSize=30;horizontalStack=0;resizeParent=1;resizeParentMax=0;resizeLast=0;collapsible=1;marginBottom=0;whiteSpace=wrap;html=1;" vertex="1" parent="79">
                    <mxGeometry x="270" y="560" width="220" height="90" as="geometry"/>
                </mxCell>
                <mxCell id="137" value="" style="endArrow=none;dashed=1;html=1;rounded=0;exitX=0;exitY=0.5;exitDx=0;exitDy=0;entryX=1;entryY=0.5;entryDx=0;entryDy=0;" edge="1" parent="135">
                    <mxGeometry width="50" height="50" relative="1" as="geometry">
                        <mxPoint y="60" as="sourcePoint"/>
                        <mxPoint x="220" y="60" as="targetPoint"/>
                    </mxGeometry>
                </mxCell>
                <mxCell id="141" value="N1.FEN L12.FEN" style="text;strokeColor=none;fillColor=none;align=left;verticalAlign=middle;spacingLeft=4;spacingRight=4;overflow=hidden;points=[[0,0.5],[1,0.5]];portConstraint=eastwest;rotatable=0;whiteSpace=wrap;html=1;" vertex="1" parent="135">
                    <mxGeometry y="30" width="220" height="30" as="geometry"/>
                </mxCell>
                <mxCell id="144" value="N1.FEN L12.FEN" style="text;strokeColor=none;fillColor=none;align=left;verticalAlign=middle;spacingLeft=4;spacingRight=4;overflow=hidden;points=[[0,0.5],[1,0.5]];portConstraint=eastwest;rotatable=0;whiteSpace=wrap;html=1;" vertex="1" parent="135">
                    <mxGeometry y="60" width="220" height="30" as="geometry"/>
                </mxCell>
                <mxCell id="142" value="On est dans le cas pour theta d'une égalité" style="text;html=1;strokeColor=none;fillColor=none;align=center;verticalAlign=middle;whiteSpace=wrap;rounded=0;" vertex="1" parent="79">
                    <mxGeometry x="540" y="535" width="160" height="110" as="geometry"/>
                </mxCell>
                <mxCell id="80" value="&lt;font style=&quot;font-size: 32px;&quot;&gt;&lt;b&gt;Système Physique&lt;/b&gt;&lt;/font&gt;" style="text;html=1;strokeColor=none;fillColor=none;align=center;verticalAlign=middle;whiteSpace=wrap;rounded=0;" vertex="1" parent="1">
                    <mxGeometry x="120" y="-160" width="380" height="120" as="geometry"/>
                </mxCell>
                <mxCell id="86" value="" style="group" vertex="1" connectable="0" parent="1">
                    <mxGeometry x="90" y="360" width="80" height="110" as="geometry"/>
                </mxCell>
                <mxCell id="87" value="N1" style="ellipse;whiteSpace=wrap;html=1;aspect=fixed;fillColor=#dae8fc;strokeColor=#6c8ebf;" vertex="1" parent="86">
                    <mxGeometry width="80" height="80" as="geometry"/>
                </mxCell>
                <mxCell id="88" value="FEN" style="rounded=0;whiteSpace=wrap;html=1;fillColor=#dae8fc;strokeColor=#6c8ebf;" vertex="1" parent="86">
                    <mxGeometry x="15" y="80" width="50" height="30" as="geometry"/>
                </mxCell>
                <mxCell id="89" value="" style="group" vertex="1" connectable="0" parent="1">
                    <mxGeometry x="330" y="360" width="80" height="110" as="geometry"/>
                </mxCell>
                <mxCell id="90" value="N2" style="ellipse;whiteSpace=wrap;html=1;aspect=fixed;fillColor=#dae8fc;strokeColor=#6c8ebf;" vertex="1" parent="89">
                    <mxGeometry width="80" height="80" as="geometry"/>
                </mxCell>
                <mxCell id="91" value="FEN" style="rounded=0;whiteSpace=wrap;html=1;fillColor=#dae8fc;strokeColor=#6c8ebf;" vertex="1" parent="89">
                    <mxGeometry x="15" y="80" width="50" height="30" as="geometry"/>
                </mxCell>
                <mxCell id="92" value="" style="group" vertex="1" connectable="0" parent="1">
                    <mxGeometry x="540" y="360" width="80" height="110" as="geometry"/>
                </mxCell>
                <mxCell id="93" value="N3" style="ellipse;whiteSpace=wrap;html=1;aspect=fixed;fillColor=#dae8fc;strokeColor=#6c8ebf;" vertex="1" parent="92">
                    <mxGeometry width="80" height="80" as="geometry"/>
                </mxCell>
                <mxCell id="94" value="FEN" style="rounded=0;whiteSpace=wrap;html=1;fillColor=#dae8fc;strokeColor=#6c8ebf;" vertex="1" parent="92">
                    <mxGeometry x="15" y="80" width="50" height="30" as="geometry"/>
                </mxCell>
                <mxCell id="96" value="" style="group" vertex="1" connectable="0" parent="1">
                    <mxGeometry x="-30" y="440" width="80" height="90" as="geometry"/>
                </mxCell>
                <mxCell id="97" value="Prod1" style="rounded=1;whiteSpace=wrap;html=1;" vertex="1" parent="96">
                    <mxGeometry y="30" width="80" height="30" as="geometry"/>
                </mxCell>
                <mxCell id="98" value="FlowT" style="rounded=0;whiteSpace=wrap;html=1;fillColor=#1ba1e2;strokeColor=#006EAF;fontColor=#ffffff;" vertex="1" parent="96">
                    <mxGeometry x="15" width="50" height="30" as="geometry"/>
                </mxCell>
                <mxCell id="100" value="" style="group" vertex="1" connectable="0" parent="1">
                    <mxGeometry x="670" y="440" width="80" height="90" as="geometry"/>
                </mxCell>
                <mxCell id="101" value="Demand1" style="rounded=1;whiteSpace=wrap;html=1;" vertex="1" parent="100">
                    <mxGeometry y="30" width="80" height="30" as="geometry"/>
                </mxCell>
                <mxCell id="102" value="FlowT" style="rounded=0;whiteSpace=wrap;html=1;fillColor=#1ba1e2;strokeColor=#006EAF;fontColor=#ffffff;" vertex="1" parent="100">
                    <mxGeometry x="15" width="50" height="30" as="geometry"/>
                </mxCell>
                <mxCell id="103" value="" style="endArrow=classic;startArrow=classic;html=1;entryX=1;entryY=0.5;entryDx=0;entryDy=0;exitX=0;exitY=0.5;exitDx=0;exitDy=0;" edge="1" parent="1" source="102" target="94">
                    <mxGeometry width="50" height="50" relative="1" as="geometry">
                        <mxPoint x="480" y="490" as="sourcePoint"/>
                        <mxPoint x="530" y="440" as="targetPoint"/>
                    </mxGeometry>
                </mxCell>
                <mxCell id="104" value="" style="endArrow=classic;startArrow=classic;html=1;exitX=0;exitY=0.5;exitDx=0;exitDy=0;entryX=1;entryY=0.5;entryDx=0;entryDy=0;" edge="1" parent="1" source="88" target="98">
                    <mxGeometry width="50" height="50" relative="1" as="geometry">
                        <mxPoint x="480" y="490" as="sourcePoint"/>
                        <mxPoint x="530" y="440" as="targetPoint"/>
                    </mxGeometry>
                </mxCell>
                <mxCell id="105" value="" style="group" vertex="1" connectable="0" parent="1">
                    <mxGeometry x="70" y="600" width="121.73000000000002" height="150" as="geometry"/>
                </mxCell>
                <mxCell id="106" value="L12" style="ellipse;whiteSpace=wrap;html=1;" vertex="1" parent="105">
                    <mxGeometry y="30" width="120" height="80" as="geometry"/>
                </mxCell>
                <mxCell id="107" value="" style="group;fillColor=#dae8fc;strokeColor=#6c8ebf;" vertex="1" connectable="0" parent="105">
                    <mxGeometry x="10" width="100" height="30" as="geometry"/>
                </mxCell>
                <mxCell id="108" value="FE1" style="rounded=0;whiteSpace=wrap;html=1;fillColor=#dae8fc;strokeColor=#6c8ebf;" vertex="1" parent="107">
                    <mxGeometry width="50" height="30" as="geometry"/>
                </mxCell>
                <mxCell id="109" value="FE2" style="rounded=0;whiteSpace=wrap;html=1;fillColor=#dae8fc;strokeColor=#6c8ebf;" vertex="1" parent="107">
                    <mxGeometry x="50" width="50" height="30" as="geometry"/>
                </mxCell>
                <mxCell id="113" value="" style="group" vertex="1" connectable="0" parent="1">
                    <mxGeometry x="303" y="600" width="121.73000000000002" height="150" as="geometry"/>
                </mxCell>
                <mxCell id="114" value="L13" style="ellipse;whiteSpace=wrap;html=1;" vertex="1" parent="113">
                    <mxGeometry y="30" width="120" height="80" as="geometry"/>
                </mxCell>
                <mxCell id="115" value="" style="group;fillColor=#dae8fc;strokeColor=#6c8ebf;" vertex="1" connectable="0" parent="113">
                    <mxGeometry x="10" width="100" height="30" as="geometry"/>
                </mxCell>
                <mxCell id="116" value="FE1" style="rounded=0;whiteSpace=wrap;html=1;fillColor=#dae8fc;strokeColor=#6c8ebf;" vertex="1" parent="115">
                    <mxGeometry width="50" height="30" as="geometry"/>
                </mxCell>
                <mxCell id="117" value="FE2" style="rounded=0;whiteSpace=wrap;html=1;fillColor=#dae8fc;strokeColor=#6c8ebf;" vertex="1" parent="115">
                    <mxGeometry x="50" width="50" height="30" as="geometry"/>
                </mxCell>
                <mxCell id="121" value="" style="group" vertex="1" connectable="0" parent="1">
                    <mxGeometry x="520" y="600" width="121.73000000000002" height="150" as="geometry"/>
                </mxCell>
                <mxCell id="122" value="L23" style="ellipse;whiteSpace=wrap;html=1;" vertex="1" parent="121">
                    <mxGeometry y="30" width="120" height="80" as="geometry"/>
                </mxCell>
                <mxCell id="123" value="" style="group;fillColor=#dae8fc;strokeColor=#6c8ebf;" vertex="1" connectable="0" parent="121">
                    <mxGeometry x="10" width="100" height="30" as="geometry"/>
                </mxCell>
                <mxCell id="124" value="FE1" style="rounded=0;whiteSpace=wrap;html=1;fillColor=#dae8fc;strokeColor=#6c8ebf;" vertex="1" parent="123">
                    <mxGeometry width="50" height="30" as="geometry"/>
                </mxCell>
                <mxCell id="125" value="FE2" style="rounded=0;whiteSpace=wrap;html=1;fillColor=#dae8fc;strokeColor=#6c8ebf;" vertex="1" parent="123">
                    <mxGeometry x="50" width="50" height="30" as="geometry"/>
                </mxCell>
                <mxCell id="128" value="" style="endArrow=classic;startArrow=classic;html=1;exitX=0.5;exitY=1;exitDx=0;exitDy=0;entryX=0.5;entryY=0;entryDx=0;entryDy=0;" edge="1" parent="1" source="88" target="108">
                    <mxGeometry width="50" height="50" relative="1" as="geometry">
                        <mxPoint x="270" y="410" as="sourcePoint"/>
                        <mxPoint x="320" y="360" as="targetPoint"/>
                    </mxGeometry>
                </mxCell>
                <mxCell id="129" value="" style="endArrow=classic;startArrow=classic;html=1;exitX=0;exitY=0.5;exitDx=0;exitDy=0;entryX=0.5;entryY=0;entryDx=0;entryDy=0;" edge="1" parent="1" source="91" target="109">
                    <mxGeometry width="50" height="50" relative="1" as="geometry">
                        <mxPoint x="140" y="480" as="sourcePoint"/>
                        <mxPoint x="115" y="610" as="targetPoint"/>
                    </mxGeometry>
                </mxCell>
                <mxCell id="130" value="" style="endArrow=classic;startArrow=classic;html=1;exitX=1;exitY=0.5;exitDx=0;exitDy=0;entryX=0.5;entryY=0;entryDx=0;entryDy=0;" edge="1" parent="1" source="91" target="124">
                    <mxGeometry width="50" height="50" relative="1" as="geometry">
                        <mxPoint x="355" y="465" as="sourcePoint"/>
                        <mxPoint x="165" y="610" as="targetPoint"/>
                    </mxGeometry>
                </mxCell>
                <mxCell id="131" value="" style="endArrow=classic;startArrow=classic;html=1;exitX=1;exitY=0.5;exitDx=0;exitDy=0;entryX=0.5;entryY=0;entryDx=0;entryDy=0;" edge="1" parent="1" source="88" target="116">
                    <mxGeometry width="50" height="50" relative="1" as="geometry">
                        <mxPoint x="405" y="465" as="sourcePoint"/>
                        <mxPoint x="565" y="610" as="targetPoint"/>
                    </mxGeometry>
                </mxCell>
                <mxCell id="132" value="" style="endArrow=classic;startArrow=classic;html=1;exitX=0.5;exitY=1;exitDx=0;exitDy=0;entryX=0.5;entryY=0;entryDx=0;entryDy=0;" edge="1" parent="1" source="94" target="125">
                    <mxGeometry width="50" height="50" relative="1" as="geometry">
                        <mxPoint x="165" y="465" as="sourcePoint"/>
                        <mxPoint x="348" y="610" as="targetPoint"/>
                    </mxGeometry>
                </mxCell>
                <mxCell id="133" value="" style="endArrow=classic;startArrow=classic;html=1;exitX=0;exitY=0.5;exitDx=0;exitDy=0;entryX=0.5;entryY=0;entryDx=0;entryDy=0;" edge="1" parent="1" source="94" target="117">
                    <mxGeometry width="50" height="50" relative="1" as="geometry">
                        <mxPoint x="590" y="480" as="sourcePoint"/>
                        <mxPoint x="615" y="610" as="targetPoint"/>
                    </mxGeometry>
                </mxCell>
            </root>
        </mxGraphModel>
    </diagram>
</mxfile>